<svg width="32" height="32" viewBox="0 0 32 32" fill="none" xmlns="http://www.w3.org/2000/svg">
  <path d="M16 2C10.477 2 6 6.477 6 12v12c0 2.21 1.79 4 4 4h2c1.105 0 2-.895 2-2s-.895-2-2-2h-2v-12c0-3.314 2.686-6 6-6s6 2.686 6 6v12h-2c-1.105 0-2 .895-2 2s.895 2 2 2h2c2.21 0 4-1.79 4-4V12c0-5.523-4.477-10-10-10z" fill="url(#ghost-gradient)"/>
  <circle cx="12" cy="14" r="2" fill="#1e293b"/>
  <circle cx="20" cy="14" r="2" fill="#1e293b"/>
  <defs>
    <linearGradient id="ghost-gradient" x1="6" y1="2" x2="26" y2="30" gradientUnits="userSpaceOnUse">
      <stop stop-color="#0ea5e9"/>
      <stop offset="1" stop-color="#3b82f6"/>
    </linearGradient>
  </defs>
</svg>